[img]http://img534.imageshack.us/img534/9571/posterzi.jpg[/img]



[i][b]AKA: Jiang shan mei ren
Year: 2008
Directed: Ching Siu-Tong
Genre: Period/Historical/Romance/Action/Drama
Runtime: 91 min
Country: Hong Kong/China
Language: Mandarin
Subtitles: English
IMDB: http://www.imdb.com/title/tt1186803/

Cast

Kelly Chen
Guo Xiao-dong
Leon Lai
Donnie Yen

Synopsis / Plot

The story was set in Ancient China before itâ™s unification, during which countless kingdoms battle for supremacy. Yen Feier (played by Kelly Chen) is thrust on the throne when her father is killed in a battle. Feier and her loyal Murong Xuehu (played by Donnie Yen) unite to defend the kingdom. But her ambitious cousion Wu Ba (played by Guo Xiaodong) sends assasins to kill her.

A mysterious man Duan Lan-Quan (played by Leon Lai) saves her. Feier falls in love with Duan who offers her another life. With the fate of her kingdom in the balance, Feier must choose between her duty and her dreams.



General
Complete name : An.Empress.and.the.Warriors.DVDRip.H264.AAC-D34dLy.mp4
Format : MPEG-4
Format profile : Base Media
Codec ID : isom
File size : 350 MiB
Duration : 1h 31mn
Overall bit rate : 535 Kbps
Encoded date : UTC 2010-05-17 21:08:04
Tagged date : UTC 2010-05-17 21:08:04

Video
ID : 1
Format : AVC
Format/Info : Advanced Video Codec
Format profile : High@L2.1
Format settings, CABAC : Yes
Format settings, ReFrames : 5 frames
Codec ID : avc1
Codec ID/Info : Advanced Video Coding
Duration : 1h 31mn
Bit rate mode : Variable
Bit rate : 470 Kbps
Maximum bit rate : 2 818 Kbps
Width : 672 pixels
Height : 288 pixels
Display aspect ratio : 2.35:1
Frame rate mode : Constant
Frame rate : 25.000 fps
Resolution : 8 bits
Colorimetry : 4:2:0
Scan type : Progressive
Bits/(Pixel*Frame) : 0.097
Stream size : 306 MiB (88%)
Title : Imported with GPAC 0.4.6-DEV (build 1)
Writing library : x264 core 80 r1376M 3feaec2
Encoding settings : cabac=1 / ref=5 / deblock=1:-2:-1 / analyse=0x3:0x113 / me=umh / subme=5 / psy=1 / psy_rd=0.0:0.0 / mixed_ref=1 / me_range=16 / chroma_me=1 / trellis=1 / 8x8dct=1 / cqm=0 / deadzone=21,11 / fast_pskip=1 / chroma_qp_offset=0 / threads=3 / sliced_threads=0 / nr=0 / decimate=1 / mbaff=0 / constrained_intra=0 / bframes=16 / b_pyramid=0 / b_adapt=1 / b_bias=0 / direct=3 / wpredb=1 / wpredp=2 / keyint=250 / keyint_min=25 / scenecut=40 / rc_lookahead=40 / rc=2pass / mbtree=1 / bitrate=470 / ratetol=1.0 / qcomp=0.60 / qpmin=10 / qpmax=51 / qpstep=4 / cplxblur=20.0 / qblur=0.5 / ip_ratio=1.40 / aq=2:1.00
Encoded date : UTC 2010-05-17 21:08:04
Tagged date : UTC 2010-05-17 21:08:44

Audio
ID : 2
Format : AAC
Format/Info : Advanced Audio Codec
Format version : Version 4
Format profile : LC
Format settings, SBR : Yes
Format settings, PS : No
Codec ID : 40
Duration : 1h 31mn
Bit rate mode : Variable
Bit rate : 64.0 Kbps
Maximum bit rate : 92.0 Kbps
Channel(s) : 2 channels
Channel positions : Front: L R
Sampling rate : 48.0 KHz
Stream size : 41.8 MiB (12%)
Encoded date : UTC 2010-05-17 21:08:41
Tagged date : UTC 2010-05-17 21:08:44



Screenshots:[/i][/b]



[img]http://img338.imageshack.us/img338/5492/89638264.jpg[/img]

[img]http://img16.imageshack.us/img16/4239/66739366.jpg[/img]

[img]http://img59.imageshack.us/img59/5443/35331960.jpg[/img]

[img]http://img532.imageshack.us/img532/6556/21026421.jpg[/img]

[img]http://img268.imageshack.us/img268/4536/86082915.jpg[/img]

[img]http://img225.imageshack.us/img225/2335/d34dly.jpg[/img]

